<svg width="1920" height="429" viewBox="0 0 1920 429" fill="none" xmlns="http://www.w3.org/2000/svg">
<path opacity="0.5" fill-rule="evenodd" clip-rule="evenodd" d="M8.7142 65.6346L-214 238.615L-82.1174 408.415L140.597 235.434C187.268 199.185 195.716 131.966 159.467 85.2948C123.218 38.624 55.9985 30.1754 9.32761 66.4244L8.7142 65.6346Z" fill="#FC8019"/>
<g opacity="0.5">
<mask id="path-2-inside-1_163_35" fill="white">
<path fill-rule="evenodd" clip-rule="evenodd" d="M1697.34 200.408L1975.27 70L2061.92 254.68L1784 385.088L1773.13 390.186L1772.84 389.554C1724.43 405.704 1670.53 383.399 1648.33 336.076C1626.12 288.753 1643.42 233.042 1686.77 206.138L1686.48 205.506L1697.34 200.408Z"/>
</mask>
<path d="M1975.27 70L1985.22 65.3274L1980.55 55.3691L1970.59 60.0417L1975.27 70ZM2061.92 254.68L2066.59 264.639L2076.55 259.966L2071.88 250.008L2061.92 254.68ZM1773.13 390.186L1763.17 394.858L1767.85 404.817L1777.8 400.144L1773.13 390.186ZM1772.84 389.554L1782.79 384.881L1778.64 376.022L1769.35 379.119L1772.84 389.554ZM1686.77 206.138L1692.57 215.485L1700.89 210.325L1696.73 201.465L1686.77 206.138ZM1686.48 205.506L1681.8 195.547L1671.85 200.22L1676.52 210.178L1686.48 205.506ZM1702.01 210.366L1979.94 79.9582L1970.59 60.0417L1692.67 190.45L1702.01 210.366ZM1965.31 74.6726L2051.96 259.353L2071.88 250.008L1985.22 65.3274L1965.31 74.6726ZM2057.25 244.722L1779.32 375.13L1788.67 395.047L2066.59 264.639L2057.25 244.722ZM1779.32 375.13L1768.46 380.228L1777.8 400.144L1788.67 395.047L1779.32 375.13ZM1783.09 385.513L1782.79 384.881L1762.88 394.226L1763.17 394.858L1783.09 385.513ZM1769.35 379.119C1726.18 393.524 1678.09 373.616 1658.29 331.404L1638.37 340.749C1662.97 393.182 1722.68 417.884 1776.32 399.988L1769.35 379.119ZM1658.29 331.404C1638.48 289.191 1653.9 239.481 1692.57 215.485L1680.97 196.791C1632.93 226.602 1613.77 288.315 1638.37 340.749L1658.29 331.404ZM1696.73 201.465L1696.43 200.833L1676.52 210.178L1676.81 210.81L1696.73 201.465ZM1691.15 215.464L1702.01 210.366L1692.67 190.45L1681.8 195.547L1691.15 215.464Z" fill="#FC8019" mask="url(#path-2-inside-1_163_35)"/>
</g>
</svg>
