<svg width="20" height="16" viewBox="0 0 20 16" fill="none" xmlns="http://www.w3.org/2000/svg">
<path opacity="0.75" d="M3.61446 3.90361C3.61446 3.20063 3.89372 2.52643 4.3908 2.02935C4.88789 1.53227 5.56208 1.25301 6.26506 1.25301C6.96804 1.25301 7.64224 1.53227 8.13932 2.02935C8.6364 2.52643 8.91566 3.20063 8.91566 3.90361C8.91566 4.60659 8.6364 5.28078 8.13932 5.77787C7.64224 6.27495 6.96804 6.55421 6.26506 6.55421C5.56208 6.55421 4.88789 6.27495 4.3908 5.77787C3.89372 5.28078 3.61446 4.60659 3.61446 3.90361ZM6.26506 0.0481873C5.24254 0.0481873 4.2619 0.454382 3.53887 1.17741C2.81583 1.90045 2.40964 2.88109 2.40964 3.90361C2.40964 4.92613 2.81583 5.90677 3.53887 6.6298C4.2619 7.35284 5.24254 7.75903 6.26506 7.75903C7.28758 7.75903 8.26822 7.35284 8.99126 6.6298C9.71429 5.90677 10.1205 4.92613 10.1205 3.90361C10.1205 2.88109 9.71429 1.90045 8.99126 1.17741C8.26822 0.454382 7.28758 0.0481873 6.26506 0.0481873ZM13.253 4.86746C13.253 4.42011 13.4307 3.99108 13.747 3.67475C14.0634 3.35843 14.4924 3.18072 14.9398 3.18072C15.3871 3.18072 15.8161 3.35843 16.1325 3.67475C16.4488 3.99108 16.6265 4.42011 16.6265 4.86746C16.6265 5.31482 16.4488 5.74385 16.1325 6.06017C15.8161 6.3765 15.3871 6.55421 14.9398 6.55421C14.4924 6.55421 14.0634 6.3765 13.747 6.06017C13.4307 5.74385 13.253 5.31482 13.253 4.86746ZM14.9398 1.9759C14.1729 1.9759 13.4374 2.28054 12.8951 2.82282C12.3528 3.36509 12.0482 4.10057 12.0482 4.86746C12.0482 5.63436 12.3528 6.36984 12.8951 6.91211C13.4374 7.45438 14.1729 7.75903 14.9398 7.75903C15.7067 7.75903 16.4421 7.45438 16.9844 6.91211C17.5267 6.36984 17.8313 5.63436 17.8313 4.86746C17.8313 4.10057 17.5267 3.36509 16.9844 2.82282C16.4421 2.28054 15.7067 1.9759 14.9398 1.9759ZM14.9398 14.9879C13.8911 14.9879 13.0496 14.8183 12.3778 14.5436L12.4675 14.4279C12.7055 14.1142 12.8882 13.8 13.028 13.5022C13.5195 13.6732 14.1441 13.7831 14.9393 13.7831C17 13.7831 17.9142 13.0443 18.3431 12.4188C18.5874 12.0594 18.7404 11.6458 18.7889 11.214C18.7917 11.1858 18.7936 11.1575 18.7947 11.1292V11.012C18.7947 10.6795 18.5248 10.4096 18.1923 10.4096H13.428C13.329 9.96423 13.1212 9.55029 12.8231 9.20481H18.1928C18.6721 9.20481 19.1318 9.39522 19.4707 9.73414C19.8096 10.0731 20 10.5327 20 11.012V11.1552L19.9986 11.1966C19.9966 11.2304 19.9937 11.2757 19.9889 11.3311C19.9206 11.9652 19.6969 12.5727 19.3378 13.0998C18.6511 14.0998 17.3364 14.9879 14.9388 14.9879H14.9398ZM1.80723 9.20481C1.32792 9.20481 0.868246 9.39522 0.529325 9.73414C0.190404 10.0731 0 10.5327 0 11.012V11.64L0.00192769 11.6867C0.0038554 11.7253 0.00771083 11.7764 0.0144578 11.84C0.0284337 11.9663 0.0549397 12.1398 0.106988 12.346C0.245103 12.8893 0.490928 13.3993 0.82988 13.8458C1.67663 14.9619 3.28964 15.9518 6.26506 15.9518C9.24096 15.9518 10.854 14.9619 11.6998 13.8458C12.0389 13.3992 12.2849 12.889 12.4231 12.3455C12.4752 12.1398 12.5017 11.9663 12.5157 11.8395C12.523 11.7732 12.5278 11.7067 12.5301 11.64V11.012C12.5301 10.7747 12.4834 10.5397 12.3926 10.3204C12.3017 10.1012 12.1686 9.90195 12.0008 9.73414C11.833 9.56632 11.6338 9.4332 11.4145 9.34238C11.1952 9.25156 10.9602 9.20481 10.7229 9.20481H1.80723ZM1.2053 11.626L1.20482 11.6106V11.012C1.20482 10.6795 1.4747 10.4096 1.80723 10.4096H10.7229C11.0554 10.4096 11.3253 10.6795 11.3253 11.012V11.6106L11.3248 11.626C11.3139 11.7691 11.2907 11.911 11.2554 12.0501C11.1568 12.437 10.9814 12.8002 10.7398 13.1181C10.1701 13.8699 8.95181 14.747 6.26506 14.747C3.57831 14.747 2.36 13.8699 1.79036 13.1181C1.54875 12.8004 1.37339 12.4374 1.2747 12.0506C1.23944 11.9113 1.21622 11.7693 1.2053 11.626Z" fill="#FC8019"/>
</svg>
