<svg width="21" height="20" viewBox="0 0 21 20" fill="none" xmlns="http://www.w3.org/2000/svg">
<path opacity="0.75" d="M20.323 7.04257L14.0445 6.1301L11.2379 0.440169C11.1612 0.284382 11.0351 0.158269 10.8793 0.0816118C10.4886 -0.111267 10.0139 0.0494654 9.81851 0.440169L7.01187 6.1301L0.733413 7.04257C0.560316 7.0673 0.402056 7.1489 0.280889 7.27254C0.134404 7.4231 0.053684 7.62566 0.0564661 7.8357C0.0592481 8.04575 0.145304 8.24609 0.295726 8.39272L4.83828 12.8215L3.76508 19.0753C3.73991 19.2207 3.75601 19.3703 3.81155 19.5071C3.86708 19.6439 3.95984 19.7624 4.07929 19.8492C4.19875 19.9359 4.34012 19.9875 4.48738 19.998C4.63465 20.0085 4.7819 19.9775 4.91246 19.9086L10.5282 16.9561L16.144 19.9086C16.2973 19.9902 16.4753 20.0174 16.6459 19.9877C17.0762 19.9135 17.3655 19.5055 17.2913 19.0753L16.2181 12.8215L20.7607 8.39272C20.8843 8.27156 20.9659 8.1133 20.9907 7.9402C21.0574 7.50746 20.7557 7.10686 20.323 7.04257Z" fill="#1AC84B"/>
</svg>
